<?xml version="1.0" encoding="UTF-8"?>
<svg xmlns="http://www.w3.org/2000/svg" xmlns:xlink="http://www.w3.org/1999/xlink" width="480px" height="480px" viewBox="0 0 480 480" version="1.1">
  <title>Group 64</title>
  <defs>
    <path d="M240,0 C107.451,0 0,107.451 0,240 L0,240 L0,240.001 C0,372.548 107.451,480 240,480 L240,480 C372.549,480 480,372.548 480,240.001 L480,240.001 L480,240 C480,107.451 372.549,0 240,0 Z" id="path-1"></path>
    <linearGradient x1="50%" y1="0%" x2="50%" y2="100%" id="linearGradient-3">
      <stop stop-color="#006CB6" offset="0%"></stop>
      <stop stop-color="#E174AE" offset="51.5215253%"></stop>
      <stop stop-color="#F47F69" offset="100%"></stop>
    </linearGradient>
    <path d="M50.56,37.693 C50.56,40.002 50.809,42.254 51.234,44.445 L51.234,44.445 C42.765,50.209 36.865,59.195 35.44,69.554 L35.44,69.554 L26.422,69.554 C11.957,69.554 0.123,80.93 0.123,94.835 L0.123,94.835 C0.123,108.74 11.957,120.116 26.422,120.116 L26.422,120.116 L184.219,120.116 C198.683,120.116 210.518,108.74 210.518,94.835 L210.518,94.835 C210.518,82.957 201.871,72.95 190.338,70.277 L190.338,70.277 C188.271,57.514 176.821,47.736 162.963,47.736 L162.963,47.736 C158.61,47.736 154.509,48.726 150.843,50.443 L150.843,50.443 C151.227,48.675 151.434,46.843 151.434,44.965 L151.434,44.965 C151.434,30.238 139.014,18.299 123.694,18.299 L123.694,18.299 C122.853,18.299 122.026,18.349 121.205,18.419 L121.205,18.419 C114.475,7.969 102.475,0.983 88.749,0.983 L88.749,0.983 C67.657,0.983 50.56,17.419 50.56,37.693 M110.925,68.624 C111.588,68.954 112.256,69.274 112.946,69.554 L112.946,69.554 L111.074,69.554 C111.032,69.242 110.978,68.934 110.925,68.624 M135.813,68.924 C135.768,69.131 135.742,69.344 135.702,69.554 L135.702,69.554 L134.441,69.554 C134.91,69.364 135.358,69.137 135.813,68.924" id="path-4"></path>
    <linearGradient x1="100%" y1="66.0311003%" x2="0%" y2="33.9688997%" id="linearGradient-6">
      <stop stop-color="#F9E3EF" offset="0%"></stop>
      <stop stop-color="#FFFFFF" offset="50.3496503%"></stop>
      <stop stop-color="#FBE3EE" offset="100%"></stop>
    </linearGradient>
    <path d="M3.641,0.069 C1.828,0.069 0.345,1.553 0.345,3.366 L0.345,3.366 L0.345,60.948 C0.345,62.76 1.828,64.244 3.641,64.244 L3.641,64.244 L99.127,64.244 C100.94,64.244 102.424,62.76 102.424,60.948 L102.424,60.948 L102.424,3.366 C102.424,1.553 100.94,0.069 99.127,0.069 L99.127,0.069 L3.641,0.069 Z" id="path-7"></path>
    <linearGradient x1="100%" y1="69.7619113%" x2="0%" y2="30.2380887%" id="linearGradient-9">
      <stop stop-color="#99DDF5" offset="0%"></stop>
      <stop stop-color="#9195D8" offset="50.3496503%"></stop>
      <stop stop-color="#99DDF5" offset="100%"></stop>
    </linearGradient>
    <path d="M3.911,0.977 C2.098,0.977 0.614,2.46 0.614,4.272 L0.614,4.272 L0.614,61.854 C0.614,63.667 2.098,65.151 3.911,65.151 L3.911,65.151 L99.397,65.151 C101.21,65.151 102.694,63.667 102.694,61.854 L102.694,61.854 L102.694,4.272 C102.694,2.46 101.21,0.977 99.397,0.977 L99.397,0.977 L3.911,0.977 Z" id="path-10"></path>
    <linearGradient x1="100%" y1="69.7609082%" x2="0%" y2="30.2390918%" id="linearGradient-12">
      <stop stop-color="#99DDF5" offset="0%"></stop>
      <stop stop-color="#9195D8" offset="50.3496503%"></stop>
      <stop stop-color="#99DDF5" offset="100%"></stop>
    </linearGradient>
    <path d="M8.084,0.977 C3.729,0.977 0.166,4.54 0.166,8.896 L0.166,8.896 L0.166,88.331 C0.166,92.686 3.729,96.25 8.084,96.25 L8.084,96.25 L41.648,96.25 C46.003,96.25 49.567,92.686 49.567,88.331 L49.567,88.331 L49.567,8.896 C49.567,4.54 46.003,0.977 41.648,0.977 L41.648,0.977 L8.084,0.977 Z" id="path-13"></path>
    <linearGradient x1="63.4431735%" y1="100%" x2="36.5568265%" y2="0%" id="linearGradient-15">
      <stop stop-color="#99DDF5" offset="0%"></stop>
      <stop stop-color="#9195D8" offset="50.3496503%"></stop>
      <stop stop-color="#99DDF5" offset="100%"></stop>
    </linearGradient>
  </defs>
  <g id="CloudDelivery" stroke="none" stroke-width="1" fill="none" fill-rule="evenodd">
    <g id="Desktop_CloudDelivery" transform="translate(-839.000000, -121.000000)">
      <g id="Group-64" transform="translate(839.000000, 121.000000)">
        <g id="Group-3">
          <mask id="mask-2" fill="white">
            <use xlink:href="#path-1"></use>
          </mask>
          <g id="Clip-2"></g>
          <path d="M240,0 C107.451,0 0,107.451 0,240 L0,240 L0,240.001 C0,372.548 107.451,480 240,480 L240,480 C372.549,480 480,372.548 480,240.001 L480,240.001 L480,240 C480,107.451 372.549,0 240,0 Z" id="Fill-1" fill="url(#linearGradient-3)" mask="url(#mask-2)"></path>
        </g>
        <g id="Group-12" transform="translate(112.000000, 127.000000)" fill="#FFFFFF">
          <polygon id="Fill-4" points="1.7511 227.5695 0.2021 227.5695 0.2021 130.9045 26.6761 130.9045 26.6761 132.4525 1.7511 132.4525"></polygon>
          <polygon id="Fill-6" points="0.2023 97.1037 0.2023 0.4277 1.7513 0.4277 1.7513 95.5347 67.4183 94.6457 67.4393 96.1937"></polygon>
          <polygon id="Fill-8" points="249.8683 227.5695 248.3193 227.5695 248.3193 132.4525 237.3073 132.4525 237.3073 130.9045 249.8683 130.9045"></polygon>
          <polygon id="Fill-10" points="249.8683 97.112 211.2463 96.194 211.2833 94.646 248.3193 95.526 248.3193 35.908 249.8683 35.908"></polygon>
        </g>
        <g id="Group-15" transform="translate(139.000000, 166.000000)">
          <mask id="mask-5" fill="white">
            <use xlink:href="#path-4"></use>
          </mask>
          <g id="Clip-14"></g>
          <path d="M50.56,37.693 C50.56,40.002 50.809,42.254 51.234,44.445 L51.234,44.445 C42.765,50.209 36.865,59.195 35.44,69.554 L35.44,69.554 L26.422,69.554 C11.957,69.554 0.123,80.93 0.123,94.835 L0.123,94.835 C0.123,108.74 11.957,120.116 26.422,120.116 L26.422,120.116 L184.219,120.116 C198.683,120.116 210.518,108.74 210.518,94.835 L210.518,94.835 C210.518,82.957 201.871,72.95 190.338,70.277 L190.338,70.277 C188.271,57.514 176.821,47.736 162.963,47.736 L162.963,47.736 C158.61,47.736 154.509,48.726 150.843,50.443 L150.843,50.443 C151.227,48.675 151.434,46.843 151.434,44.965 L151.434,44.965 C151.434,30.238 139.014,18.299 123.694,18.299 L123.694,18.299 C122.853,18.299 122.026,18.349 121.205,18.419 L121.205,18.419 C114.475,7.969 102.475,0.983 88.749,0.983 L88.749,0.983 C67.657,0.983 50.56,17.419 50.56,37.693 M110.925,68.624 C111.588,68.954 112.256,69.274 112.946,69.554 L112.946,69.554 L111.074,69.554 C111.032,69.242 110.978,68.934 110.925,68.624 M135.813,68.924 C135.768,69.131 135.742,69.344 135.702,69.554 L135.702,69.554 L134.441,69.554 C134.91,69.364 135.358,69.137 135.813,68.924" id="Fill-13" fill="url(#linearGradient-6)" mask="url(#mask-5)"></path>
        </g>
        <g id="Group-28" transform="translate(61.000000, 315.000000)" fill="#16171E">
          <path d="M59.0196,81.1984 L47.7486,81.1984 C45.9356,81.1984 44.4526,79.7154 44.4526,77.9024 L44.4526,60.6764 C44.4526,58.8634 45.9356,57.3804 47.7486,57.3804 L59.0196,57.3804 C60.8326,57.3804 62.3156,58.8634 62.3156,60.6764 L62.3156,77.9024 C62.3156,79.7154 60.8326,81.1984 59.0196,81.1984" id="Fill-16"></path>
          <path d="M47.7482,58.9284 C46.7842,58.9284 46.0002,59.7124 46.0002,60.6764 L46.0002,77.9024 C46.0002,78.8664 46.7842,79.6504 47.7482,79.6504 L59.0192,79.6504 C59.9832,79.6504 60.7682,78.8664 60.7682,77.9024 L60.7682,60.6764 C60.7682,59.7124 59.9832,58.9284 59.0192,58.9284 L47.7482,58.9284 Z M59.0192,82.7464 L47.7482,82.7464 C45.0772,82.7464 42.9042,80.5734 42.9042,77.9024 L42.9042,60.6764 C42.9042,58.0054 45.0772,55.8314 47.7482,55.8314 L59.0192,55.8314 C61.6902,55.8314 63.8632,58.0054 63.8632,60.6764 L63.8632,77.9024 C63.8632,80.5734 61.6902,82.7464 59.0192,82.7464 L59.0192,82.7464 Z" id="Fill-18"></path>
          <path d="M81.1368,85.4518 L25.6308,85.4518 C23.8188,85.4518 22.3348,83.9688 22.3348,82.1558 L22.3348,81.9428 C22.3348,80.1298 23.8188,78.6468 25.6308,78.6468 L81.1368,78.6468 C82.9488,78.6468 84.4328,80.1298 84.4328,81.9428 L84.4328,82.1558 C84.4328,83.9688 82.9488,85.4518 81.1368,85.4518" id="Fill-20"></path>
          <path d="M25.631,80.195 C24.667,80.195 23.883,80.979 23.883,81.943 L23.883,82.155 C23.883,83.119 24.667,83.903 25.631,83.903 L81.137,83.903 C82.101,83.903 82.885,83.119 82.885,82.155 L82.885,81.943 C82.885,80.979 82.101,80.195 81.137,80.195 L25.631,80.195 Z M81.137,87 L25.631,87 C22.96,87 20.787,84.827 20.787,82.155 L20.787,81.943 C20.787,79.272 22.96,77.098 25.631,77.098 L81.137,77.098 C83.808,77.098 85.981,79.272 85.981,81.943 L85.981,82.155 C85.981,84.827 83.808,87 81.137,87 L81.137,87 Z" id="Fill-22"></path>
          <path d="M101.1271,67.5881 L5.6411,67.5881 C3.8281,67.5881 2.3451,66.1051 2.3451,64.2921 L2.3451,5.1711 C2.3451,3.3581 3.8281,1.8751 5.6411,1.8751 L101.1271,1.8751 C102.9401,1.8751 104.4241,3.3581 104.4241,5.1711 L104.4241,64.2921 C104.4241,66.1051 102.9401,67.5881 101.1271,67.5881" id="Fill-24"></path>
          <path d="M5.6407,3.423 C4.6767,3.423 3.8927,4.207 3.8927,5.171 L3.8927,64.292 C3.8927,65.256 4.6767,66.04 5.6407,66.04 L101.1267,66.04 C102.0907,66.04 102.8757,65.256 102.8757,64.292 L102.8757,5.171 C102.8757,4.207 102.0907,3.423 101.1267,3.423 L5.6407,3.423 Z M101.1267,69.136 L5.6407,69.136 C2.9697,69.136 0.7967,66.963 0.7967,64.292 L0.7967,5.171 C0.7967,2.5 2.9697,0.326 5.6407,0.326 L101.1267,0.326 C103.7987,0.326 105.9717,2.5 105.9717,5.171 L105.9717,64.292 C105.9717,66.963 103.7987,69.136 101.1267,69.136 L101.1267,69.136 Z" id="Fill-26"></path>
        </g>
        <g id="Group-31" transform="translate(63.000000, 310.000000)">
          <mask id="mask-8" fill="white">
            <use xlink:href="#path-7"></use>
          </mask>
          <g id="Clip-30"></g>
          <path d="M3.641,0.069 C1.828,0.069 0.345,1.553 0.345,3.366 L0.345,3.366 L0.345,60.948 C0.345,62.76 1.828,64.244 3.641,64.244 L3.641,64.244 L99.127,64.244 C100.94,64.244 102.424,62.76 102.424,60.948 L102.424,60.948 L102.424,3.366 C102.424,1.553 100.94,0.069 99.127,0.069 L99.127,0.069 L3.641,0.069 Z" id="Fill-29" fill="url(#linearGradient-9)" mask="url(#mask-8)"></path>
        </g>
        <g id="Group-36" transform="translate(62.000000, 154.000000)" fill="#16171E">
          <path d="M4.6407,157.3893 C3.5507,157.3893 2.6637,158.2763 2.6637,159.3663 L2.6637,216.9473 C2.6637,218.0373 3.5507,218.9243 4.6407,218.9243 L100.1267,218.9243 C101.2167,218.9243 102.1047,218.0373 102.1047,216.9473 L102.1047,159.3663 C102.1047,158.2763 101.2167,157.3893 100.1267,157.3893 L4.6407,157.3893 Z M100.1267,221.5633 L4.6407,221.5633 C2.0957,221.5633 0.0257,219.4933 0.0257,216.9473 L0.0257,159.3663 C0.0257,156.8203 2.0957,154.7493 4.6407,154.7493 L100.1267,154.7493 C102.6727,154.7493 104.7437,156.8203 104.7437,159.3663 L104.7437,216.9473 C104.7437,219.4933 102.6727,221.5633 100.1267,221.5633 L100.1267,221.5633 Z" id="Fill-32"></path>
          <path d="M350.7384,13.1022 L238.5684,13.1022 C235.3414,13.1022 232.7234,10.4852 232.7234,7.2572 L232.7234,6.8272 C232.7234,3.5992 235.3414,0.9822 238.5694,0.9822 L350.7384,0.9822 C353.9674,0.9822 356.5834,3.5992 356.5834,6.8272 L356.5834,7.2572 C356.5834,10.4852 353.9674,13.1022 350.7384,13.1022" id="Fill-34"></path>
        </g>
        <g id="Group-39" transform="translate(305.000000, 84.000000)">
          <mask id="mask-11" fill="white">
            <use xlink:href="#path-10"></use>
          </mask>
          <g id="Clip-38"></g>
          <path d="M3.911,0.977 C2.098,0.977 0.614,2.46 0.614,4.272 L0.614,4.272 L0.614,61.854 C0.614,63.667 2.098,65.151 3.911,65.151 L3.911,65.151 L99.397,65.151 C101.21,65.151 102.694,63.667 102.694,61.854 L102.694,61.854 L102.694,4.272 C102.694,2.46 101.21,0.977 99.397,0.977 L99.397,0.977 L3.911,0.977 Z" id="Fill-37" fill="url(#linearGradient-12)" mask="url(#mask-11)"></path>
        </g>
        <path d="M308.9102,86.2966 C307.8202,86.2966 306.9332,87.1826 306.9332,88.2726 L306.9332,145.8546 C306.9332,146.9446 307.8202,147.8306 308.9102,147.8306 L404.3962,147.8306 C405.4862,147.8306 406.3742,146.9446 406.3742,145.8546 L406.3742,88.2726 C406.3742,87.1826 405.4862,86.2966 404.3962,86.2966 L308.9102,86.2966 Z M404.3962,150.4706 L308.9102,150.4706 C306.3652,150.4706 304.2952,148.3996 304.2952,145.8546 L304.2952,88.2726 C304.2952,85.7276 306.3652,83.6566 308.9102,83.6566 L404.3962,83.6566 C406.9422,83.6566 409.0132,85.7276 409.0132,88.2726 L409.0132,145.8546 C409.0132,148.3996 406.9422,150.4706 404.3962,150.4706 L404.3962,150.4706 Z" id="Fill-40" fill="#16171E"></path>
        <g id="Group-44" transform="translate(89.000000, 84.000000)">
          <mask id="mask-14" fill="white">
            <use xlink:href="#path-13"></use>
          </mask>
          <g id="Clip-43"></g>
          <path d="M8.084,0.977 C3.729,0.977 0.166,4.54 0.166,8.896 L0.166,8.896 L0.166,88.331 C0.166,92.686 3.729,96.25 8.084,96.25 L8.084,96.25 L41.648,96.25 C46.003,96.25 49.567,92.686 49.567,88.331 L49.567,88.331 L49.567,8.896 C49.567,4.54 46.003,0.977 41.648,0.977 L41.648,0.977 L8.084,0.977 Z" id="Fill-42" fill="url(#linearGradient-15)" mask="url(#mask-14)"></path>
        </g>
        <g id="Group-63" transform="translate(87.000000, 83.000000)">
          <path d="M10.0841,3.2966 C6.4451,3.2966 3.4851,6.2566 3.4851,9.8956 L3.4851,89.3306 C3.4851,92.9696 6.4451,95.9296 10.0841,95.9296 L43.6471,95.9296 C47.2861,95.9296 50.2471,92.9696 50.2471,89.3306 L50.2471,9.8956 C50.2471,6.2566 47.2861,3.2966 43.6471,3.2966 L10.0841,3.2966 Z M43.6471,98.5686 L10.0841,98.5686 C4.9901,98.5686 0.8471,94.4246 0.8471,89.3306 L0.8471,9.8956 C0.8471,4.8016 4.9901,0.6566 10.0841,0.6566 L43.6471,0.6566 C48.7411,0.6566 52.8861,4.8016 52.8861,9.8956 L52.8861,89.3306 C52.8861,94.4246 48.7411,98.5686 43.6471,98.5686 L43.6471,98.5686 Z" id="Fill-45" fill="#16171E"></path>
          <path d="M313.6104,282.5812 L234.7554,282.5812 C233.5474,282.5812 232.5604,283.5682 232.5604,284.7752 L232.5604,315.2572 C232.5604,316.4642 233.5474,317.4522 234.7554,317.4522 L313.6104,317.4522 C314.8174,317.4522 315.8044,316.4642 315.8044,315.2572 L315.8044,284.7752 C315.8044,283.5682 314.8174,282.5812 313.6104,282.5812" id="Fill-47" fill="#16171E"></path>
          <path d="M272.7237,296.6105 L245.2717,296.6105 C243.9647,296.6105 242.8967,297.6785 242.8967,298.9855 L242.8967,301.0475 C242.8967,302.3535 243.9647,303.4225 245.2717,303.4225 L272.7237,303.4225 C274.0307,303.4225 275.0987,302.3535 275.0987,301.0475 L275.0987,298.9855 C275.0987,297.6785 274.0307,296.6105 272.7237,296.6105" id="Fill-49" fill="#F47F69"></path>
          <path d="M299.1681,296.6105 L294.5401,296.6105 C293.9391,296.6105 293.4481,297.1015 293.4481,297.7025 L293.4481,302.3305 C293.4481,302.9305 293.9391,303.4225 294.5401,303.4225 L299.1681,303.4225 C299.7691,303.4225 300.2601,302.9305 300.2601,302.3305 L300.2601,297.7025 C300.2601,297.1015 299.7691,296.6105 299.1681,296.6105" id="Fill-51" fill="#F47F69"></path>
          <path d="M234.755,277.0978 L313.61,277.0978 C314.818,277.0978 315.805,276.1108 315.805,274.9038 L315.805,244.4208 C315.805,243.2148 314.818,242.2268 313.61,242.2268 L234.755,242.2268 C233.548,242.2268 232.561,243.2148 232.561,244.4208 L232.561,274.9038 C232.561,276.1108 233.548,277.0978 234.755,277.0978" id="Fill-53" fill="#16171E"></path>
          <path d="M275.6417,263.0685 L303.0937,263.0685 C304.4007,263.0685 305.4687,261.9995 305.4687,260.6935 L305.4687,258.6315 C305.4687,257.3245 304.4007,256.2565 303.0937,256.2565 L275.6417,256.2565 C274.3357,256.2565 273.2667,257.3245 273.2667,258.6315 L273.2667,260.6935 C273.2667,261.9995 274.3357,263.0685 275.6417,263.0685" id="Fill-55" fill="#F47F69"></path>
          <path d="M249.1974,263.0685 L253.8254,263.0685 C254.4264,263.0685 254.9184,262.5765 254.9184,261.9765 L254.9184,257.3485 C254.9184,256.7475 254.4264,256.2565 253.8254,256.2565 L249.1974,256.2565 C248.5964,256.2565 248.1054,256.7475 248.1054,257.3485 L248.1054,261.9765 C248.1054,262.5765 248.5964,263.0685 249.1974,263.0685" id="Fill-57" fill="#F47F69"></path>
          <polygon id="Fill-59" fill="#00ABE6" points="153.6085 109.2917 153.6085 109.2987 153.6075 109.2917 106.9065 163.2177 153.6065 190.1807 153.6085 190.1617 153.6095 190.1807 200.3105 163.2177"></polygon>
          <polygon id="Fill-61" fill="#80D5F2" points="106.9064 163.218 153.6074 109.292 153.6084 190.182 153.6084 190.162 153.6064 190.181"></polygon>
        </g>
      </g>
    </g>
  </g>
</svg>
